<?xml version="1.0" encoding="utf-8"?>
<!-- Generator: Adobe Illustrator 13.0.0, SVG Export Plug-In  -->
<!DOCTYPE svg PUBLIC "-//W3C//DTD SVG 1.1//EN" "http://www.w3.org/Graphics/SVG/1.1/DTD/svg11.dtd" [
	<!ENTITY ns_flows "http://ns.adobe.com/Flows/1.0/">
]>
<svg version="1.1"
	 xmlns="http://www.w3.org/2000/svg" xmlns:xlink="http://www.w3.org/1999/xlink" xmlns:a="http://ns.adobe.com/AdobeSVGViewerExtensions/3.0/"
	 x="0px" y="0px" width="205px" height="42px" viewBox="-2.902 -1.145 205 42" enable-background="new -2.902 -1.145 205 42"
	 xml:space="preserve">
<defs>
</defs>
<g>
	<defs>
		<rect id="SVGID_4_" width="200" height="56.439"/>
	</defs>
	<clipPath id="SVGID_5_">
		<use xlink:href="#SVGID_4_"  overflow="visible"/>
	</clipPath>
	<g clip-path="url(#SVGID_5_)">
		<defs>
			<rect id="SVGID_3_" width="200" height="56.439"/>
		</defs>
		<clipPath id="SVGID_6_">
			<use xlink:href="#SVGID_3_"  overflow="visible"/>
		</clipPath>
		<g opacity="0.4" clip-path="url(#SVGID_6_)">
			<g>
				<defs>
					<rect id="SVGID_2_" x="2.678" y="2.677" width="197.321" height="37.725"/>
				</defs>
				<clipPath id="SVGID_7_">
					<use xlink:href="#SVGID_2_"  overflow="visible"/>
				</clipPath>
				<path clip-path="url(#SVGID_7_)" fill="#141414" d="M200,37.724c0,1.478-1.2,2.678-2.679,2.678H5.357
					c-1.479,0-2.679-1.2-2.679-2.678V5.356c0-1.479,1.2-2.68,2.679-2.68h191.963c1.479,0,2.679,1.2,2.679,2.68V37.724z"/>
			</g>
		</g>
		<path clip-path="url(#SVGID_6_)" fill="#FFFFFF" d="M197.321,35.043c0,1.481-1.2,2.681-2.679,2.681H2.678
			C1.199,37.724,0,36.524,0,35.043V2.677C0,1.199,1.199,0,2.678,0h191.963c1.479,0,2.679,1.199,2.679,2.677V35.043z"/>
	</g>
	<g clip-path="url(#SVGID_5_)">
		<path fill="#8C8C8C" d="M77.622,21.512c-0.278-1.338-0.043-2.527,0.707-3.569s1.905-1.727,3.467-2.052
			c0.315-0.065,0.845-0.13,1.592-0.195c0.747-0.064,1.556,0.144,2.428,0.623c0.873,0.48,1.437,1.033,1.695,1.658
			c0.258,0.626,0.423,1.114,0.497,1.463c0.25,1.198,0.075,2.287-0.523,3.269c-0.599,0.979-1.298,1.601-2.101,1.865
			c-0.802,0.264-1.36,0.43-1.675,0.495c-1.574,0.328-2.911,0.157-4.01-0.512C78.598,23.888,77.906,22.873,77.622,21.512z
			 M80.59,20.875l0.146,0.702c0.262,0.846,0.629,1.447,1.102,1.8c0.472,0.354,1.013,0.466,1.624,0.338
			c0.669-0.14,1.158-0.517,1.464-1.132c0.307-0.616,0.353-1.441,0.137-2.476c-0.053-0.256-0.17-0.655-0.351-1.201
			c-0.181-0.544-0.507-0.988-0.977-1.334c-0.47-0.344-1.01-0.452-1.621-0.325l-0.388,0.081c-0.486,0.197-0.838,0.534-1.059,1.007
			c-0.22,0.472-0.293,1.098-0.216,1.874L80.59,20.875z"/>
	</g>
	<g clip-path="url(#SVGID_5_)">
		<path fill="#8C8C8C" d="M88.441,16.821l0.4-1.445l4.44,1.228l-0.347,1.256l0.317-0.282c0.806-0.642,1.632-0.846,2.477-0.612
			c0.091,0.025,0.346,0.14,0.764,0.341c0.417,0.202,0.65,0.529,0.698,0.981c0.048,0.451,0.038,0.797-0.029,1.038
			c-0.098,0.356-0.282,0.639-0.549,0.848c-0.268,0.211-0.518,0.312-0.75,0.303c-0.231-0.008-0.412-0.03-0.539-0.065
			c-0.32-0.089-0.579-0.26-0.775-0.511c-0.196-0.252-0.281-0.489-0.257-0.711c0.025-0.222,0.044-0.36,0.06-0.418
			c0.086-0.311,0.282-0.546,0.586-0.709c-0.672-0.187-1.243-0.016-1.711,0.509c-0.47,0.524-0.781,1.063-0.933,1.613l-0.767,2.771
			c-0.095,0.344-0.097,0.589-0.006,0.729c0.09,0.143,0.33,0.268,0.72,0.376l0.913,0.252l-0.381,1.377l-6.3-1.741l0.381-1.378
			l0.861,0.238c0.298,0.082,0.518,0.079,0.661-0.012c0.142-0.09,0.257-0.296,0.346-0.617l0.171-0.62l0.957-3.46
			c0.092-0.332,0.1-0.567,0.022-0.706c-0.078-0.14-0.271-0.252-0.578-0.336L88.441,16.821z"/>
	</g>
	<g clip-path="url(#SVGID_5_)">
		<defs>
			<rect id="SVGID_1_" width="200" height="56.439"/>
		</defs>
		<clipPath id="SVGID_8_">
			<use xlink:href="#SVGID_1_"  overflow="visible"/>
		</clipPath>
		<g clip-path="url(#SVGID_8_)">
			<path fill="#333333" d="M13.508,7.137h0.804c3.125,0,5.402,0.392,6.831,1.173c2.12,1.116,3.181,2.757,3.181,4.922v0.066
				c0,2.188-1.261,3.817-3.784,4.889l-0.101,0.033v0.101c1.518,0.424,2.69,1.172,3.516,2.243c0.759,1.027,1.139,2.222,1.139,3.583
				c0,2.321-1.094,4.196-3.281,5.624c-0.647,0.38-1.451,0.727-2.411,1.038c-2.009,0.447-3.716,0.67-5.123,0.67l-0.034-0.033v-4.554
				c0-0.045,0.424-0.101,1.272-0.168c0.759-0.179,1.272-0.356,1.54-0.535c0.871-0.535,1.306-1.328,1.306-2.377
				c0-1.317-0.815-2.177-2.444-2.579c-0.581-0.11-1.116-0.167-1.607-0.167l-0.067-0.067v-4.452c0-0.045,0.424-0.111,1.272-0.201
				c0.625-0.135,1.093-0.313,1.406-0.536c0.647-0.446,0.971-0.992,0.971-1.641v-0.233c0-1.116-0.748-1.819-2.243-2.11l-0.904-0.066
				h-0.234c-0.737,0-1.373,0.045-1.909,0.134v19.554l-0.067,0.033h-0.369c-2.456,0-4.419-0.134-5.893-0.401l-0.033-0.034V7.706
				c0-0.067,0.848-0.189,2.544-0.368C10.506,7.204,12.08,7.137,13.508,7.137z"/>
			<path fill="#333333" d="M40.093,28.699c-1.607,1.563-3.783,2.344-6.529,2.344c-2.523,0-4.565-0.77-6.127-2.31
				c-1.54-1.54-2.311-3.538-2.311-5.994c0-2.633,0.804-4.72,2.411-6.261c1.428-1.405,3.281-2.187,5.558-2.344v4.252
				c-1.228,0.425-1.842,1.82-1.842,4.186c0,1.228,0.189,2.222,0.569,2.98c0.446,0.87,1.083,1.306,1.909,1.306
				c0.915,0,1.595-0.446,2.042-1.34c0.402-0.736,0.603-1.719,0.603-2.946c0-2.231-0.581-3.604-1.741-4.118v-4.319
				c2.321,0.157,4.196,0.96,5.625,2.411c1.495,1.495,2.244,3.46,2.244,5.893C42.504,25.05,41.7,27.138,40.093,28.699z"/>
			<path fill="#333333" d="M57.369,28.699c-1.607,1.563-3.783,2.344-6.529,2.344c-2.523,0-4.565-0.77-6.127-2.31
				c-1.54-1.54-2.31-3.538-2.31-5.994c0-2.633,0.804-4.72,2.411-6.261c1.428-1.405,3.281-2.187,5.558-2.344v4.252
				c-1.228,0.425-1.841,1.82-1.841,4.186c0,1.228,0.189,2.222,0.569,2.98c0.446,0.87,1.083,1.306,1.909,1.306
				c0.915,0,1.595-0.446,2.042-1.34c0.402-0.736,0.603-1.719,0.603-2.946c0-2.231-0.581-3.604-1.741-4.118v-4.319
				c2.321,0.157,4.196,0.96,5.625,2.411c1.495,1.495,2.244,3.46,2.244,5.893C59.78,25.05,58.977,27.138,57.369,28.699z"/>
			<path fill="#333333" d="M66.777,20.865h0.067l0.536-1.072l3.248-5.625h7.199l-5.692,6.63l6.529,9.844H71.23l-3.248-6.294
				l-1.205,1.606v4.688h-6.06V6.836h6.06V20.865z"/>
		</g>
		<g clip-path="url(#SVGID_8_)">
			<path fill="#333333" d="M104.849,7.673l0.034,0.033v10.012h1.808c1.428,0,2.466-0.525,3.114-1.574
				c0.178-0.401,0.268-0.77,0.268-1.104v-0.302c0-1.025-0.514-1.774-1.541-2.243c-0.446-0.178-0.971-0.269-1.574-0.269h-0.469
				l-0.033-0.032V7.739l0.033-0.066h0.101c4.866,0,7.868,1.295,9.007,3.884c0.379,0.849,0.569,1.808,0.569,2.88
				c0,2.009-0.982,3.694-2.946,5.056c-0.558,0.313-0.882,0.469-0.971,0.469v0.066c0.469,0.246,0.849,0.503,1.139,0.771
				c0.848,0.826,1.506,2.166,1.976,4.018c0.714,2.836,1.272,4.8,1.674,5.893h-0.033h-6.194c-0.291-0.424-0.703-1.651-1.239-3.683
				c-0.402-1.83-0.737-3.002-1.005-3.516c-0.446-0.915-1.272-1.373-2.477-1.373h-1.206v8.539l-0.067,0.032h-5.96l-0.067-0.032V8.209
				c0-0.045,0.681-0.135,2.042-0.269C102.75,7.763,104.089,7.673,104.849,7.673z"/>
			<path fill="#333333" d="M126.545,13.733h0.335c2.834,0,4.955,1.184,6.362,3.549c0.781,1.429,1.172,3.103,1.172,5.022
				c0,0.714-0.079,1.473-0.235,2.276h-0.033h-8.571c-0.38-0.646-0.569-1.473-0.569-2.478c0-0.625,0.101-1.183,0.301-1.674h3.449
				c0-1.071-0.38-1.863-1.138-2.378c-0.358-0.201-0.726-0.301-1.105-0.301h-0.234c-1.25,0-2.21,0.849-2.879,2.544
				c-0.224,0.715-0.335,1.396-0.335,2.043v0.033c0,1.34,0.368,2.467,1.104,3.382c0.781,0.782,1.942,1.172,3.482,1.172
				c1.384,0,3.069-0.302,5.056-0.904l0.77,4.052c-1.719,0.714-3.806,1.071-6.261,1.071c-4.197,0-7.021-1.562-8.471-4.688
				c-0.469-1.16-0.703-2.388-0.703-3.683v-0.268c0-2.255,0.781-4.319,2.344-6.195C122.036,14.593,124.089,13.733,126.545,13.733z"/>
			<path fill="#333333" d="M135.853,19.793c0-1.004-0.012-2.03-0.034-3.08l-0.1-2.545h5.223l0.268,2.11h0.101
				c0.178-0.269,0.39-0.524,0.636-0.771c0.312-0.29,0.658-0.559,1.038-0.804c0.982-0.603,2.076-0.904,3.281-0.904
				c3.973,0,5.96,2.378,5.96,7.132v9.71h-6.06v-8.974c0-2.008-0.703-3.014-2.109-3.014c-0.536,0-0.982,0.157-1.339,0.47
				c-0.246,0.245-0.458,0.568-0.636,0.971c-0.112,0.246-0.167,0.648-0.167,1.206v9.341h-6.061V19.793z"/>
			<path fill="#333333" d="M160.864,9.48v4.688h3.415v4.42h-3.415v4.722c0,1.83,0.636,2.745,1.909,2.745
				c0.624,0,1.104-0.044,1.439-0.135v4.588c-0.826,0.313-2.02,0.469-3.582,0.469c-1.741,0-3.114-0.502-4.119-1.507
				c-1.027-1.026-1.54-2.734-1.54-5.122v-5.76h-2.042v-4.42h2.042v-3.08L160.864,9.48z"/>
		</g>
		<path clip-path="url(#SVGID_8_)" fill="#F2721C" d="M191.741,26.563c0,2.453-2.009,4.464-4.465,4.464h-16.294
			c-2.455,0-4.464-2.011-4.464-4.464V12.947c0-2.458,2.009-4.465,4.464-4.465h16.294c2.456,0,4.465,2.007,4.465,4.465V26.563z"/>
		<polygon clip-path="url(#SVGID_8_)" fill="#FFFFFF" points="182.082,14.506 181.444,14.812 182.292,16.586 173.951,20.569 
			174.435,21.582 178.164,19.802 179.053,21.668 175.455,23.385 175.908,24.333 178.558,23.067 179.401,24.834 175.868,26.521 
			176.289,27.403 178.939,26.141 179.423,27.153 178.541,27.575 178.961,28.459 174.227,31.027 176.464,31.027 179.176,29.711 
			178.677,28.664 179.625,28.211 179.203,27.326 180.087,26.906 179.182,25.008 180.163,24.541 178.867,21.826 179.782,21.389 
			178.923,19.589 182.555,17.855 182.04,16.776 182.956,16.338 		"/>
		<polygon clip-path="url(#SVGID_8_)" fill="#FFFFFF" points="166.517,22.011 167.194,21.637 166.742,20.688 168.161,19.796 
			167.739,18.915 169.603,18.024 169.166,17.109 170.114,16.655 169.724,15.838 171.556,14.963 172.353,16.631 171.42,17.035 
			171.874,17.984 168.766,19.468 169.265,20.517 181.124,14.854 180.666,13.896 172.553,17.771 172.147,16.919 173.128,16.451 
			171.77,13.604 168.891,14.978 169.359,15.96 168.378,16.428 168.815,17.345 166.983,18.219 167.42,19.134 166.503,19.672 		"/>
		<path clip-path="url(#SVGID_8_)" fill="#333333" d="M189.291,13.677c0,1.387-1.125,2.51-2.511,2.51
			c-1.387,0-2.511-1.123-2.511-2.51s1.124-2.512,2.511-2.512C188.166,11.165,189.291,12.29,189.291,13.677"/>
	</g>
</g>
</svg>
